<mxfile host="app.diagrams.net" agent="Mozilla/5.0 (Windows NT 10.0; Win64; x64) AppleWebKit/537.36 (KHTML, like Gecko) Chrome/128.0.0.0 Safari/537.36" version="24.7.14">
  <diagram id="R2lEEEUBdFMjLlhIrx00" name="Page-1">
    <mxGraphModel dx="1118" dy="594" grid="1" gridSize="10" guides="1" tooltips="1" connect="1" arrows="1" fold="1" page="1" pageScale="1" pageWidth="850" pageHeight="1100" math="0" shadow="0" extFonts="Permanent Marker^https://fonts.googleapis.com/css?family=Permanent+Marker">
      <root>
        <mxCell id="0" />
        <mxCell id="1" parent="0" />
        <mxCell id="C-vyLk0tnHw3VtMMgP7b-23" value="patients" style="shape=table;startSize=30;container=1;collapsible=1;childLayout=tableLayout;fixedRows=1;rowLines=0;fontStyle=1;align=center;resizeLast=1;" parent="1" vertex="1">
          <mxGeometry x="580" y="20" width="250" height="170" as="geometry" />
        </mxCell>
        <mxCell id="C-vyLk0tnHw3VtMMgP7b-24" value="" style="shape=partialRectangle;collapsible=0;dropTarget=0;pointerEvents=0;fillColor=none;points=[[0,0.5],[1,0.5]];portConstraint=eastwest;top=0;left=0;right=0;bottom=1;" parent="C-vyLk0tnHw3VtMMgP7b-23" vertex="1">
          <mxGeometry y="30" width="250" height="30" as="geometry" />
        </mxCell>
        <mxCell id="C-vyLk0tnHw3VtMMgP7b-25" value="PK" style="shape=partialRectangle;overflow=hidden;connectable=0;fillColor=none;top=0;left=0;bottom=0;right=0;fontStyle=1;" parent="C-vyLk0tnHw3VtMMgP7b-24" vertex="1">
          <mxGeometry width="30" height="30" as="geometry">
            <mxRectangle width="30" height="30" as="alternateBounds" />
          </mxGeometry>
        </mxCell>
        <mxCell id="C-vyLk0tnHw3VtMMgP7b-26" value="patient_id int, auto_increment" style="shape=partialRectangle;overflow=hidden;connectable=0;fillColor=none;top=0;left=0;bottom=0;right=0;align=left;spacingLeft=6;fontStyle=5;" parent="C-vyLk0tnHw3VtMMgP7b-24" vertex="1">
          <mxGeometry x="30" width="220" height="30" as="geometry">
            <mxRectangle width="220" height="30" as="alternateBounds" />
          </mxGeometry>
        </mxCell>
        <mxCell id="C-vyLk0tnHw3VtMMgP7b-27" value="" style="shape=partialRectangle;collapsible=0;dropTarget=0;pointerEvents=0;fillColor=none;points=[[0,0.5],[1,0.5]];portConstraint=eastwest;top=0;left=0;right=0;bottom=0;" parent="C-vyLk0tnHw3VtMMgP7b-23" vertex="1">
          <mxGeometry y="60" width="250" height="100" as="geometry" />
        </mxCell>
        <mxCell id="C-vyLk0tnHw3VtMMgP7b-28" value="" style="shape=partialRectangle;overflow=hidden;connectable=0;fillColor=none;top=0;left=0;bottom=0;right=0;" parent="C-vyLk0tnHw3VtMMgP7b-27" vertex="1">
          <mxGeometry width="30" height="100" as="geometry">
            <mxRectangle width="30" height="100" as="alternateBounds" />
          </mxGeometry>
        </mxCell>
        <mxCell id="C-vyLk0tnHw3VtMMgP7b-29" value="first_name varchar(30) not null&#xa;last_name varchar(30) not null&#xa;date_of_birth DATE NOT NULL&#xa;gender VARCHAR(10) NOT NULL&#xa;language VARCHAR(30) NOT NULL" style="shape=partialRectangle;overflow=hidden;connectable=0;fillColor=none;top=0;left=0;bottom=0;right=0;align=left;spacingLeft=6;" parent="C-vyLk0tnHw3VtMMgP7b-27" vertex="1">
          <mxGeometry x="30" width="220" height="100" as="geometry">
            <mxRectangle width="220" height="100" as="alternateBounds" />
          </mxGeometry>
        </mxCell>
        <mxCell id="dpobcpmzFHFUWC8DlL_o-5" value="providers" style="shape=table;startSize=30;container=1;collapsible=1;childLayout=tableLayout;fixedRows=1;rowLines=0;fontStyle=1;align=center;resizeLast=1;" vertex="1" parent="1">
          <mxGeometry x="555" y="230" width="300" height="170" as="geometry" />
        </mxCell>
        <mxCell id="dpobcpmzFHFUWC8DlL_o-6" value="" style="shape=partialRectangle;collapsible=0;dropTarget=0;pointerEvents=0;fillColor=none;points=[[0,0.5],[1,0.5]];portConstraint=eastwest;top=0;left=0;right=0;bottom=1;" vertex="1" parent="dpobcpmzFHFUWC8DlL_o-5">
          <mxGeometry y="30" width="300" height="30" as="geometry" />
        </mxCell>
        <mxCell id="dpobcpmzFHFUWC8DlL_o-7" value="PK" style="shape=partialRectangle;overflow=hidden;connectable=0;fillColor=none;top=0;left=0;bottom=0;right=0;fontStyle=1;" vertex="1" parent="dpobcpmzFHFUWC8DlL_o-6">
          <mxGeometry width="30" height="30" as="geometry">
            <mxRectangle width="30" height="30" as="alternateBounds" />
          </mxGeometry>
        </mxCell>
        <mxCell id="dpobcpmzFHFUWC8DlL_o-8" value="provider_id int, auto_increment" style="shape=partialRectangle;overflow=hidden;connectable=0;fillColor=none;top=0;left=0;bottom=0;right=0;align=left;spacingLeft=6;fontStyle=5;" vertex="1" parent="dpobcpmzFHFUWC8DlL_o-6">
          <mxGeometry x="30" width="270" height="30" as="geometry">
            <mxRectangle width="270" height="30" as="alternateBounds" />
          </mxGeometry>
        </mxCell>
        <mxCell id="dpobcpmzFHFUWC8DlL_o-9" value="" style="shape=partialRectangle;collapsible=0;dropTarget=0;pointerEvents=0;fillColor=none;points=[[0,0.5],[1,0.5]];portConstraint=eastwest;top=0;left=0;right=0;bottom=0;" vertex="1" parent="dpobcpmzFHFUWC8DlL_o-5">
          <mxGeometry y="60" width="300" height="100" as="geometry" />
        </mxCell>
        <mxCell id="dpobcpmzFHFUWC8DlL_o-10" value="" style="shape=partialRectangle;overflow=hidden;connectable=0;fillColor=none;top=0;left=0;bottom=0;right=0;" vertex="1" parent="dpobcpmzFHFUWC8DlL_o-9">
          <mxGeometry width="30" height="100" as="geometry">
            <mxRectangle width="30" height="100" as="alternateBounds" />
          </mxGeometry>
        </mxCell>
        <mxCell id="dpobcpmzFHFUWC8DlL_o-11" value="first_name VARCHAR(30) NOT NULL&#xa;last_name VARCHAR(30) NOT NULL&#xa;provider_speciality VARCHAR(40) NOT NULL&#xa;email_address&#x9;VARCHAR(100)&#xa;phone_number&#x9;VARCHAR(11)&#xa;date_joined&#x9;DATE&#x9;NOT NULL" style="shape=partialRectangle;overflow=hidden;connectable=0;fillColor=none;top=0;left=0;bottom=0;right=0;align=left;spacingLeft=6;" vertex="1" parent="dpobcpmzFHFUWC8DlL_o-9">
          <mxGeometry x="30" width="270" height="100" as="geometry">
            <mxRectangle width="270" height="100" as="alternateBounds" />
          </mxGeometry>
        </mxCell>
        <mxCell id="dpobcpmzFHFUWC8DlL_o-12" value="visits" style="shape=table;startSize=30;container=1;collapsible=1;childLayout=tableLayout;fixedRows=1;rowLines=0;fontStyle=1;align=center;resizeLast=1;" vertex="1" parent="1">
          <mxGeometry x="30" y="40" width="430" height="290" as="geometry" />
        </mxCell>
        <mxCell id="dpobcpmzFHFUWC8DlL_o-13" value="" style="shape=partialRectangle;collapsible=0;dropTarget=0;pointerEvents=0;fillColor=none;points=[[0,0.5],[1,0.5]];portConstraint=eastwest;top=0;left=0;right=0;bottom=1;" vertex="1" parent="dpobcpmzFHFUWC8DlL_o-12">
          <mxGeometry y="30" width="430" height="30" as="geometry" />
        </mxCell>
        <mxCell id="dpobcpmzFHFUWC8DlL_o-14" value="PK" style="shape=partialRectangle;overflow=hidden;connectable=0;fillColor=none;top=0;left=0;bottom=0;right=0;fontStyle=1;" vertex="1" parent="dpobcpmzFHFUWC8DlL_o-13">
          <mxGeometry width="30" height="30" as="geometry">
            <mxRectangle width="30" height="30" as="alternateBounds" />
          </mxGeometry>
        </mxCell>
        <mxCell id="dpobcpmzFHFUWC8DlL_o-15" value="visit_id int, auto_increment" style="shape=partialRectangle;overflow=hidden;connectable=0;fillColor=none;top=0;left=0;bottom=0;right=0;align=left;spacingLeft=6;fontStyle=5;" vertex="1" parent="dpobcpmzFHFUWC8DlL_o-13">
          <mxGeometry x="30" width="400" height="30" as="geometry">
            <mxRectangle width="400" height="30" as="alternateBounds" />
          </mxGeometry>
        </mxCell>
        <mxCell id="dpobcpmzFHFUWC8DlL_o-16" value="" style="shape=partialRectangle;collapsible=0;dropTarget=0;pointerEvents=0;fillColor=none;points=[[0,0.5],[1,0.5]];portConstraint=eastwest;top=0;left=0;right=0;bottom=0;" vertex="1" parent="dpobcpmzFHFUWC8DlL_o-12">
          <mxGeometry y="60" width="430" height="170" as="geometry" />
        </mxCell>
        <mxCell id="dpobcpmzFHFUWC8DlL_o-17" value="" style="shape=partialRectangle;overflow=hidden;connectable=0;fillColor=none;top=0;left=0;bottom=0;right=0;" vertex="1" parent="dpobcpmzFHFUWC8DlL_o-16">
          <mxGeometry width="30" height="170" as="geometry">
            <mxRectangle width="30" height="170" as="alternateBounds" />
          </mxGeometry>
        </mxCell>
        <mxCell id="dpobcpmzFHFUWC8DlL_o-18" value="patient_id INT&#x9;FOREIGN KEY REFERENCES patients(patient_id)&#xa;provider_id INT&#x9;FOREIGN KEY REFERENCES providers(provider_id)&#xa;date_of_visit&#x9;DATE NOT NULL&#xa;date_scheduled&#x9;DATE NOT NULL&#xa;visit_department_id INT&#x9;NOT NULL&#xa;visit_type VARCHAR NOT NULL&#xa;blood_pressure_systollic INT&#x9;&#xa;blood_pressure_diastollic DECIMAL&#x9;&#xa;pulse&#x9;DECIMAL&#x9;&#xa;visit_status VARCHAR NOT NULL" style="shape=partialRectangle;overflow=hidden;connectable=0;fillColor=none;top=0;left=0;bottom=0;right=0;align=left;spacingLeft=6;" vertex="1" parent="dpobcpmzFHFUWC8DlL_o-16">
          <mxGeometry x="30" width="400" height="170" as="geometry">
            <mxRectangle width="400" height="170" as="alternateBounds" />
          </mxGeometry>
        </mxCell>
        <mxCell id="dpobcpmzFHFUWC8DlL_o-21" value="" style="edgeStyle=entityRelationEdgeStyle;fontSize=12;html=1;endArrow=ERzeroToOne;startArrow=ERmandOne;rounded=0;exitX=1.011;exitY=0.11;exitDx=0;exitDy=0;exitPerimeter=0;entryX=0;entryY=0.5;entryDx=0;entryDy=0;" edge="1" parent="1" source="dpobcpmzFHFUWC8DlL_o-16" target="C-vyLk0tnHw3VtMMgP7b-24">
          <mxGeometry width="100" height="100" relative="1" as="geometry">
            <mxPoint x="425" y="190" as="sourcePoint" />
            <mxPoint x="525" y="90" as="targetPoint" />
          </mxGeometry>
        </mxCell>
        <mxCell id="dpobcpmzFHFUWC8DlL_o-23" value="" style="edgeStyle=entityRelationEdgeStyle;fontSize=12;html=1;endArrow=ERzeroToOne;startArrow=ERmandOne;rounded=0;exitX=1.017;exitY=0.218;exitDx=0;exitDy=0;exitPerimeter=0;entryX=0;entryY=0.5;entryDx=0;entryDy=0;" edge="1" parent="1" source="dpobcpmzFHFUWC8DlL_o-16" target="dpobcpmzFHFUWC8DlL_o-6">
          <mxGeometry width="100" height="100" relative="1" as="geometry">
            <mxPoint x="560" y="400" as="sourcePoint" />
            <mxPoint x="660" y="300" as="targetPoint" />
          </mxGeometry>
        </mxCell>
        <mxCell id="dpobcpmzFHFUWC8DlL_o-24" value="ed_visits" style="shape=table;startSize=30;container=1;collapsible=1;childLayout=tableLayout;fixedRows=1;rowLines=0;fontStyle=1;align=center;resizeLast=1;" vertex="1" parent="1">
          <mxGeometry x="30" y="360" width="420" height="170" as="geometry" />
        </mxCell>
        <mxCell id="dpobcpmzFHFUWC8DlL_o-25" value="" style="shape=partialRectangle;collapsible=0;dropTarget=0;pointerEvents=0;fillColor=none;points=[[0,0.5],[1,0.5]];portConstraint=eastwest;top=0;left=0;right=0;bottom=1;" vertex="1" parent="dpobcpmzFHFUWC8DlL_o-24">
          <mxGeometry y="30" width="420" height="30" as="geometry" />
        </mxCell>
        <mxCell id="dpobcpmzFHFUWC8DlL_o-26" value="PK" style="shape=partialRectangle;overflow=hidden;connectable=0;fillColor=none;top=0;left=0;bottom=0;right=0;fontStyle=1;" vertex="1" parent="dpobcpmzFHFUWC8DlL_o-25">
          <mxGeometry width="30" height="30" as="geometry">
            <mxRectangle width="30" height="30" as="alternateBounds" />
          </mxGeometry>
        </mxCell>
        <mxCell id="dpobcpmzFHFUWC8DlL_o-27" value="ed_visits_id int, auto_increment" style="shape=partialRectangle;overflow=hidden;connectable=0;fillColor=none;top=0;left=0;bottom=0;right=0;align=left;spacingLeft=6;fontStyle=5;" vertex="1" parent="dpobcpmzFHFUWC8DlL_o-25">
          <mxGeometry x="30" width="390" height="30" as="geometry">
            <mxRectangle width="390" height="30" as="alternateBounds" />
          </mxGeometry>
        </mxCell>
        <mxCell id="dpobcpmzFHFUWC8DlL_o-28" value="" style="shape=partialRectangle;collapsible=0;dropTarget=0;pointerEvents=0;fillColor=none;points=[[0,0.5],[1,0.5]];portConstraint=eastwest;top=0;left=0;right=0;bottom=0;" vertex="1" parent="dpobcpmzFHFUWC8DlL_o-24">
          <mxGeometry y="60" width="420" height="100" as="geometry" />
        </mxCell>
        <mxCell id="dpobcpmzFHFUWC8DlL_o-29" value="" style="shape=partialRectangle;overflow=hidden;connectable=0;fillColor=none;top=0;left=0;bottom=0;right=0;" vertex="1" parent="dpobcpmzFHFUWC8DlL_o-28">
          <mxGeometry width="30" height="100" as="geometry">
            <mxRectangle width="30" height="100" as="alternateBounds" />
          </mxGeometry>
        </mxCell>
        <mxCell id="dpobcpmzFHFUWC8DlL_o-30" value="visit_id INT FOREIGN KEY REFERENCES visits(visit_id)&#xa;patient_id INT FOREIGN KEY REFERENCES patients(patient_id)&#xa;acuity INT NOT NULL&#xa;reason_for_visit VARCHAR(100) NOT NULL&#xa;disposition VARCHAR(100) NOT NULL" style="shape=partialRectangle;overflow=hidden;connectable=0;fillColor=none;top=0;left=0;bottom=0;right=0;align=left;spacingLeft=6;" vertex="1" parent="dpobcpmzFHFUWC8DlL_o-28">
          <mxGeometry x="30" width="390" height="100" as="geometry">
            <mxRectangle width="390" height="100" as="alternateBounds" />
          </mxGeometry>
        </mxCell>
        <mxCell id="dpobcpmzFHFUWC8DlL_o-31" value="" style="edgeStyle=entityRelationEdgeStyle;fontSize=12;html=1;endArrow=ERzeroToOne;startArrow=ERmandOne;rounded=0;exitX=1.015;exitY=0.39;exitDx=0;exitDy=0;exitPerimeter=0;" edge="1" parent="1" source="dpobcpmzFHFUWC8DlL_o-28">
          <mxGeometry width="100" height="100" relative="1" as="geometry">
            <mxPoint x="480" y="170" as="sourcePoint" />
            <mxPoint x="580" y="70" as="targetPoint" />
          </mxGeometry>
        </mxCell>
        <mxCell id="dpobcpmzFHFUWC8DlL_o-32" value="" style="edgeStyle=entityRelationEdgeStyle;fontSize=12;html=1;endArrow=ERzeroToOne;startArrow=ERmandOne;rounded=0;exitX=1.003;exitY=0.206;exitDx=0;exitDy=0;exitPerimeter=0;" edge="1" parent="1" source="dpobcpmzFHFUWC8DlL_o-28" target="dpobcpmzFHFUWC8DlL_o-13">
          <mxGeometry width="100" height="100" relative="1" as="geometry">
            <mxPoint x="360" y="190" as="sourcePoint" />
            <mxPoint x="451" y="80" as="targetPoint" />
            <Array as="points">
              <mxPoint x="460" y="80" />
            </Array>
          </mxGeometry>
        </mxCell>
        <mxCell id="dpobcpmzFHFUWC8DlL_o-33" value="admissions" style="shape=table;startSize=30;container=1;collapsible=1;childLayout=tableLayout;fixedRows=1;rowLines=0;fontStyle=1;align=center;resizeLast=1;" vertex="1" parent="1">
          <mxGeometry x="940" y="15" width="400" height="205" as="geometry" />
        </mxCell>
        <mxCell id="dpobcpmzFHFUWC8DlL_o-34" value="" style="shape=partialRectangle;collapsible=0;dropTarget=0;pointerEvents=0;fillColor=none;points=[[0,0.5],[1,0.5]];portConstraint=eastwest;top=0;left=0;right=0;bottom=1;" vertex="1" parent="dpobcpmzFHFUWC8DlL_o-33">
          <mxGeometry y="30" width="400" height="30" as="geometry" />
        </mxCell>
        <mxCell id="dpobcpmzFHFUWC8DlL_o-35" value="PK" style="shape=partialRectangle;overflow=hidden;connectable=0;fillColor=none;top=0;left=0;bottom=0;right=0;fontStyle=1;" vertex="1" parent="dpobcpmzFHFUWC8DlL_o-34">
          <mxGeometry width="30" height="30" as="geometry">
            <mxRectangle width="30" height="30" as="alternateBounds" />
          </mxGeometry>
        </mxCell>
        <mxCell id="dpobcpmzFHFUWC8DlL_o-36" value="admission_id int, auto_increment" style="shape=partialRectangle;overflow=hidden;connectable=0;fillColor=none;top=0;left=0;bottom=0;right=0;align=left;spacingLeft=6;fontStyle=5;" vertex="1" parent="dpobcpmzFHFUWC8DlL_o-34">
          <mxGeometry x="30" width="370" height="30" as="geometry">
            <mxRectangle width="370" height="30" as="alternateBounds" />
          </mxGeometry>
        </mxCell>
        <mxCell id="dpobcpmzFHFUWC8DlL_o-37" value="" style="shape=partialRectangle;collapsible=0;dropTarget=0;pointerEvents=0;fillColor=none;points=[[0,0.5],[1,0.5]];portConstraint=eastwest;top=0;left=0;right=0;bottom=0;" vertex="1" parent="dpobcpmzFHFUWC8DlL_o-33">
          <mxGeometry y="60" width="400" height="125" as="geometry" />
        </mxCell>
        <mxCell id="dpobcpmzFHFUWC8DlL_o-38" value="" style="shape=partialRectangle;overflow=hidden;connectable=0;fillColor=none;top=0;left=0;bottom=0;right=0;" vertex="1" parent="dpobcpmzFHFUWC8DlL_o-37">
          <mxGeometry width="30" height="125" as="geometry">
            <mxRectangle width="30" height="125" as="alternateBounds" />
          </mxGeometry>
        </mxCell>
        <mxCell id="dpobcpmzFHFUWC8DlL_o-39" value="patient_id INT&#x9;FOREIGN KEY REFERENCE patients(patients_id)&#xa;admission_date DATE NOT NULL&#xa;discharge_date&#x9;DATE NOT NULL&#xa;discharge_disposition VARCHAR(100) NOT NULL&#xa;service&#x9;VARCHAR(30) NOT NULL&#xa;primary_diagnosis VARCHAR(40) NOT NULL" style="shape=partialRectangle;overflow=hidden;connectable=0;fillColor=none;top=0;left=0;bottom=0;right=0;align=left;spacingLeft=6;" vertex="1" parent="dpobcpmzFHFUWC8DlL_o-37">
          <mxGeometry x="30" width="370" height="125" as="geometry">
            <mxRectangle width="370" height="125" as="alternateBounds" />
          </mxGeometry>
        </mxCell>
        <mxCell id="dpobcpmzFHFUWC8DlL_o-40" value="" style="edgeStyle=entityRelationEdgeStyle;fontSize=12;html=1;endArrow=ERzeroToMany;startArrow=ERmandOne;rounded=0;entryX=1;entryY=0.5;entryDx=0;entryDy=0;exitX=-0.003;exitY=0.227;exitDx=0;exitDy=0;exitPerimeter=0;" edge="1" parent="1" source="dpobcpmzFHFUWC8DlL_o-37" target="C-vyLk0tnHw3VtMMgP7b-24">
          <mxGeometry width="100" height="100" relative="1" as="geometry">
            <mxPoint x="790" y="155" as="sourcePoint" />
            <mxPoint x="890" y="55" as="targetPoint" />
          </mxGeometry>
        </mxCell>
        <mxCell id="dpobcpmzFHFUWC8DlL_o-41" value="discharges" style="shape=table;startSize=20;container=1;collapsible=1;childLayout=tableLayout;fixedRows=1;rowLines=0;fontStyle=1;align=center;resizeLast=1;" vertex="1" parent="1">
          <mxGeometry x="910" y="310" width="450" height="170" as="geometry" />
        </mxCell>
        <mxCell id="dpobcpmzFHFUWC8DlL_o-42" value="" style="shape=partialRectangle;collapsible=0;dropTarget=0;pointerEvents=0;fillColor=none;points=[[0,0.5],[1,0.5]];portConstraint=eastwest;top=0;left=0;right=0;bottom=1;" vertex="1" parent="dpobcpmzFHFUWC8DlL_o-41">
          <mxGeometry y="20" width="450" height="30" as="geometry" />
        </mxCell>
        <mxCell id="dpobcpmzFHFUWC8DlL_o-43" value="PK" style="shape=partialRectangle;overflow=hidden;connectable=0;fillColor=none;top=0;left=0;bottom=0;right=0;fontStyle=1;" vertex="1" parent="dpobcpmzFHFUWC8DlL_o-42">
          <mxGeometry width="30" height="30" as="geometry">
            <mxRectangle width="30" height="30" as="alternateBounds" />
          </mxGeometry>
        </mxCell>
        <mxCell id="dpobcpmzFHFUWC8DlL_o-44" value="discharge_id int, auto_increment" style="shape=partialRectangle;overflow=hidden;connectable=0;fillColor=none;top=0;left=0;bottom=0;right=0;align=left;spacingLeft=6;fontStyle=5;" vertex="1" parent="dpobcpmzFHFUWC8DlL_o-42">
          <mxGeometry x="30" width="420" height="30" as="geometry">
            <mxRectangle width="420" height="30" as="alternateBounds" />
          </mxGeometry>
        </mxCell>
        <mxCell id="dpobcpmzFHFUWC8DlL_o-45" value="" style="shape=partialRectangle;collapsible=0;dropTarget=0;pointerEvents=0;fillColor=none;points=[[0,0.5],[1,0.5]];portConstraint=eastwest;top=0;left=0;right=0;bottom=0;" vertex="1" parent="dpobcpmzFHFUWC8DlL_o-41">
          <mxGeometry y="50" width="450" height="100" as="geometry" />
        </mxCell>
        <mxCell id="dpobcpmzFHFUWC8DlL_o-46" value="" style="shape=partialRectangle;overflow=hidden;connectable=0;fillColor=none;top=0;left=0;bottom=0;right=0;" vertex="1" parent="dpobcpmzFHFUWC8DlL_o-45">
          <mxGeometry width="30" height="100" as="geometry">
            <mxRectangle width="30" height="100" as="alternateBounds" />
          </mxGeometry>
        </mxCell>
        <mxCell id="dpobcpmzFHFUWC8DlL_o-47" value="admission_id INT FOREIGN KEY REFERENCES admissions(admission_id)&#xa;patient_id INT FOREIGN KEY REFERENCES patients(patients_id)&#xa;discharge_date DATE NOT NULL&#xa;discharge_disposition VARCHAR(100) NOT NULL" style="shape=partialRectangle;overflow=hidden;connectable=0;fillColor=none;top=0;left=0;bottom=0;right=0;align=left;spacingLeft=6;" vertex="1" parent="dpobcpmzFHFUWC8DlL_o-45">
          <mxGeometry x="30" width="420" height="100" as="geometry">
            <mxRectangle width="420" height="100" as="alternateBounds" />
          </mxGeometry>
        </mxCell>
        <mxCell id="dpobcpmzFHFUWC8DlL_o-50" value="" style="edgeStyle=entityRelationEdgeStyle;fontSize=12;html=1;endArrow=ERzeroToMany;endFill=1;startArrow=ERzeroToMany;rounded=0;entryX=0;entryY=0.5;entryDx=0;entryDy=0;exitX=0.007;exitY=0.264;exitDx=0;exitDy=0;exitPerimeter=0;" edge="1" parent="1" source="dpobcpmzFHFUWC8DlL_o-45" target="dpobcpmzFHFUWC8DlL_o-34">
          <mxGeometry width="100" height="100" relative="1" as="geometry">
            <mxPoint x="890" y="380" as="sourcePoint" />
            <mxPoint x="900" y="60" as="targetPoint" />
            <Array as="points">
              <mxPoint x="910" y="350" />
              <mxPoint x="890" y="270" />
              <mxPoint x="880" y="270" />
              <mxPoint x="870" y="210" />
              <mxPoint x="880" y="203" />
              <mxPoint x="910" y="350" />
              <mxPoint x="820" y="180" />
            </Array>
          </mxGeometry>
        </mxCell>
        <mxCell id="dpobcpmzFHFUWC8DlL_o-51" value="Text" style="edgeLabel;html=1;align=center;verticalAlign=middle;resizable=0;points=[];" vertex="1" connectable="0" parent="dpobcpmzFHFUWC8DlL_o-50">
          <mxGeometry x="-0.4715" relative="1" as="geometry">
            <mxPoint x="-50" y="-1" as="offset" />
          </mxGeometry>
        </mxCell>
        <mxCell id="dpobcpmzFHFUWC8DlL_o-52" value="" style="edgeStyle=entityRelationEdgeStyle;fontSize=12;html=1;endArrow=ERzeroToMany;endFill=1;startArrow=ERzeroToMany;rounded=0;exitX=0.001;exitY=0.414;exitDx=0;exitDy=0;exitPerimeter=0;" edge="1" parent="1" source="dpobcpmzFHFUWC8DlL_o-45">
          <mxGeometry width="100" height="100" relative="1" as="geometry">
            <mxPoint x="740" y="290" as="sourcePoint" />
            <mxPoint x="830" y="60" as="targetPoint" />
          </mxGeometry>
        </mxCell>
      </root>
    </mxGraphModel>
  </diagram>
</mxfile>
